<?xml version="1.0" standalone="no"?>
<!DOCTYPE svg PUBLIC "-//W3C//DTD SVG 20010904//EN"
 "http://www.w3.org/TR/2001/REC-SVG-20010904/DTD/svg10.dtd">
<svg version="1.0" xmlns="http://www.w3.org/2000/svg"
 width="300.000000pt" height="300.000000pt" viewBox="0 0 300.000000 300.000000"
 preserveAspectRatio="xMidYMid meet">
<metadata>
Created by potrace 1.15, written by Peter Selinger 2001-2017
</metadata>
<g transform="translate(0.000000,300.000000) scale(0.100000,-0.100000)"
fill="#000000" stroke="none">
<path d="M856 2519 c-47 -25 -191 -162 -258 -247 -78 -97 -92 -152 -93 -354
l0 -167 -57 -58 c-85 -86 -90 -103 -112 -368 l-14 -160 -94 -88 -93 -88 -66
-212 -66 -212 40 -42 c38 -40 45 -43 92 -43 46 0 54 3 75 32 27 37 19 58 -28
72 -57 18 -51 55 36 237 64 134 94 170 173 206 24 12 74 35 111 52 70 33 108
71 147 149 12 23 24 42 27 42 3 0 68 -44 145 -97 162 -112 152 -89 114 -283
-14 -69 -25 -125 -25 -126 0 0 56 -51 124 -112 110 -99 125 -117 131 -152 l7
-40 68 0 c101 0 130 8 130 36 0 12 -5 35 -10 50 -10 25 -13 26 -58 20 l-47 -6
-79 111 c-92 131 -91 119 -21 324 33 94 45 147 46 190 0 33 4 81 7 106 l7 46
218 -50 c250 -58 236 -46 192 -171 -27 -78 -80 -162 -184 -291 l-71 -89 0 -66
c0 -51 4 -70 18 -82 28 -25 60 -38 76 -32 18 7 36 63 36 112 0 25 8 40 33 60
93 77 149 140 191 215 61 108 230 307 261 307 42 0 76 -43 184 -233 73 -129
128 -203 235 -315 l79 -83 86 3 86 3 3 33 c4 44 -9 58 -66 67 -55 8 -89 24
-119 57 -25 26 -132 245 -190 388 l-39 95 11 81 c11 83 23 109 79 172 60 68
96 125 112 179 14 48 23 59 94 113 l78 59 105 -6 c104 -6 105 -6 132 21 23 23
25 29 13 43 -7 9 -33 26 -58 37 l-45 21 45 3 c78 5 147 22 165 42 9 10 19 36
22 58 5 39 5 40 -38 56 -176 65 -187 70 -221 116 -37 50 -95 83 -175 100 -35
8 -54 17 -58 29 -8 25 -48 41 -105 41 -87 0 -102 -20 -48 -65 36 -30 42 -21
-72 -112 -102 -81 -160 -119 -217 -144 -48 -20 -135 -29 -908 -94 -462 -38
-512 -6 -313 202 43 45 88 103 99 128 28 62 30 146 5 174 -24 26 -40 26 -90 0z"/>
</g>
</svg>
